<svg viewBox="0 0 242 35" xmlns="http://www.w3.org/2000/svg" xmlns:xlink="http://www.w3.org/1999/xlink" xmlns:figma="http://www.figma.com/figma/ns"><desc>Created using Figma</desc><g style="mix-blend-mode:normal" figma:type="vector" transform="translate(.74 .5)" fill="#FFF"><use xlink:href="#a" style="mix-blend-mode:normal"/><use xlink:href="#b" style="mix-blend-mode:normal"/><use xlink:href="#c" style="mix-blend-mode:normal"/><use xlink:href="#d" style="mix-blend-mode:normal"/><use xlink:href="#e" style="mix-blend-mode:normal"/><use xlink:href="#f" style="mix-blend-mode:normal"/><use xlink:href="#g" style="mix-blend-mode:normal"/><use xlink:href="#h" style="mix-blend-mode:normal"/><use xlink:href="#i" style="mix-blend-mode:normal"/><use xlink:href="#j" style="mix-blend-mode:normal"/><use xlink:href="#k" style="mix-blend-mode:normal"/><use xlink:href="#l" style="mix-blend-mode:normal"/><use xlink:href="#m" style="mix-blend-mode:normal"/><use xlink:href="#n" style="mix-blend-mode:normal"/><use xlink:href="#o" style="mix-blend-mode:normal"/><use xlink:href="#p" style="mix-blend-mode:normal"/><use xlink:href="#q" style="mix-blend-mode:normal"/><use xlink:href="#r" style="mix-blend-mode:normal"/><use xlink:href="#s" style="mix-blend-mode:normal"/><use xlink:href="#t" style="mix-blend-mode:normal"/><use xlink:href="#u" style="mix-blend-mode:normal"/><use xlink:href="#v" style="mix-blend-mode:normal"/></g><defs><path id="a" d="M40.76 14.235c0-.827-.29-1.465-.874-1.914-.573-.44-1.614-.9-3.12-1.35-1.508-.46-2.706-.97-3.596-1.53-1.707-1.07-2.56-2.48-2.56-4.21 0-1.51.614-2.76 1.838-3.75C33.682.49 35.28 0 37.24 0c1.302 0 2.462.24 3.48.724 1.02.483 1.82 1.172 2.403 2.07.582.886.873 1.873.873 2.96H40.76c0-.983-.308-1.75-.925-2.302-.608-.56-1.48-.84-2.62-.84-1.062 0-1.888.228-2.48.685-.58.457-.872 1.095-.872 1.913 0 .69.317 1.267.95 1.733.634.457 1.678.905 3.134 1.345 1.456.43 2.624.926 3.506 1.486.882.552 1.53 1.19 1.94 1.914.41.715.616 1.556.616 2.52 0 1.57-.6 2.82-1.8 3.75-1.19.923-2.81 1.384-4.86 1.384-1.35 0-2.6-.25-3.74-.75-1.13-.508-2.02-1.207-2.65-2.095-.63-.887-.94-1.922-.94-3.102h3.25c0 1.068.35 1.896 1.05 2.482.7.586 1.705.88 3.015.88 1.13 0 1.98-.23 2.545-.686.573-.46.86-1.07.86-1.83z"/><path id="b" d="M60.37 2.896h-5.83v16.187h-3.22V2.896h-5.78V.26h14.834l.002 2.636z"/><path id="c" d="M73.767 10.68h-7.68v5.792h8.977v2.61H62.837V.26h12.137v2.636h-8.887v5.198h7.68v2.585z"/><path id="d" d="M84.3 14.985L89.05.26h3.57l-6.73 18.823h-3.145L76.04.26h3.558l4.7 14.725z"/><path id="e" d="M105.67 10.68h-7.68v5.792h8.977v2.61H94.74V.26h12.137v2.636H97.99v5.198h7.68v2.585z"/><path id="f" d="M124.447 19.083h-3.25l-8.335-13.355v13.355h-3.25V.26h3.25l8.36 13.406V.26h3.225v18.823z"/><path id="g" d="M134.837 19.083V.26h6.41c2.114 0 3.723.425 4.828 1.28 1.105.852 1.657 2.123 1.657 3.813 0 .862-.23 1.637-.694 2.327-.462.69-1.14 1.224-2.03 1.603 1.01.276 1.79.797 2.338 1.565.557.758.835 1.672.835 2.74 0 1.767-.56 3.125-1.69 4.073-1.12.95-2.73 1.43-4.83 1.43h-6.82zm3.25-8.494v5.88h3.608c1.02 0 1.816-.26 2.39-.77.573-.51.86-1.22.86-2.12 0-1.96-.993-2.96-2.98-3h-3.88zm0-2.41h3.185c1.01 0 1.798-.23 2.363-.69.573-.47.86-1.12.86-1.97 0-.93-.265-1.61-.796-2.02-.53-.417-1.34-.62-2.46-.62h-3.16v5.29z"/><path id="h" d="M158.302 11.83h-3.622v7.253h-3.25V.26h6.576c2.158 0 3.823.486 4.997 1.46 1.173.974 1.76 2.383 1.76 4.227 0 1.26-.305 2.315-.913 3.168-.6.845-1.438 1.495-2.517 1.952l4.2 7.848v.168h-3.48l-3.75-7.253zm-3.622-2.624h3.34c1.095 0 1.95-.276 2.568-.828.616-.56.925-1.323.925-2.288 0-1.01-.287-1.79-.86-2.34-.566-.552-1.414-.837-2.544-.854h-3.43v6.31z"/><path id="i" d="M178.312 14.7h-7.244l-1.515 4.383h-3.378L173.24.26h2.914l7.077 18.823h-3.39l-1.52-4.383zm-6.332-2.637h5.42l-2.71-7.81-2.71 7.81z"/><path id="j" d="M200.21 19.083h-3.237v-8.365h-8.36v8.365h-3.25V.26h3.25v7.834h8.36V.26h3.237v18.823z"/><path id="k" d="M214.76 14.7h-7.243l-1.515 4.383h-3.378L209.688.26h2.915l7.077 18.823h-3.39l-1.53-4.383zm-6.33-2.637h5.42l-2.71-7.81-2.71 7.81z"/><path id="l" d="M226.025.26l5.394 14.427L236.8.26h4.2v18.823h-3.237v-6.206l.322-8.3-5.523 14.506h-2.325l-5.51-14.493.322 8.287v6.206h-3.24V.26h4.21z"/><path id="m" d="M134.65 34.24v-8.687h2.55c.762 0 1.438.17 2.027.513.592.342 1.05.827 1.375 1.456.324.63.486 1.35.486 2.16v.436c0 .823-.164 1.547-.492 2.172-.324.624-.79 1.106-1.393 1.444-.6.338-1.29.507-2.07.507h-2.483zm1.5-7.47v6.266h.978c.787 0 1.39-.247 1.808-.74.423-.497.638-1.21.646-2.136v-.484c0-.943-.203-1.663-.61-2.16-.407-.497-.998-.746-1.773-.746h-1.05z"/><path id="n" d="M147.626 30.362h-3.545v2.674h4.15v1.205h-5.64v-8.68h5.6v1.22h-4.1v2.4h3.55v1.2z"/><path id="o" d="M152.487 32.35l2.193-6.797h1.648l-3.106 8.688h-1.452l-3.095-8.68h1.642l2.17 6.8z"/><path id="p" d="M162.35 30.362h-3.544v2.674h4.143v1.205h-5.65v-8.68h5.6v1.22h-4.1v2.4h3.54v1.2z"/><path id="q" d="M165.67 33.036h3.918v1.205h-5.418v-8.68h1.5v7.49z"/><path id="r" d="M177.247 30.124c0 .85-.146 1.6-.44 2.243-.29.64-.71 1.134-1.256 1.48-.54.342-1.16.514-1.87.514-.7 0-1.32-.17-1.87-.51-.54-.34-.97-.83-1.27-1.47-.29-.63-.44-1.37-.45-2.2v-.49c0-.84.15-1.59.45-2.24.3-.64.72-1.14 1.27-1.48.548-.342 1.17-.52 1.875-.52.703 0 1.325.17 1.867.518.543.337.964.826 1.26 1.467.295.636.445 1.378.45 2.225v.484zm-1.5-.454c0-.963-.182-1.7-.545-2.214-.36-.513-.872-.77-1.536-.77-.648 0-1.155.257-1.523.77-.364.51-.55 1.232-.557 2.166v.502c0 .954.184 1.692.55 2.214.373.52.886.78 1.542.78.664 0 1.174-.253 1.53-.763.36-.51.54-1.253.54-2.23v-.455z"/><path id="s" d="M180.24 31.013v3.228h-1.5v-8.68h3.302c.964 0 1.73.26 2.294.76.57.51.854 1.18.854 2.01 0 .85-.28 1.52-.836 1.99-.553.477-1.33.71-2.33.71h-1.784zm0-1.212l1.802.01c.534 0 .94-.12 1.22-.37.282-.25.422-.62.422-1.093 0-.47-.142-.844-.427-1.122-.284-.28-.675-.426-1.173-.434h-1.844v3.034z"/><path id="t" d="M191.55 30.362h-3.545v2.674h4.144v1.205h-5.65v-8.68h5.6v1.22H188v2.4h3.544v1.2z"/><path id="u" d="M196.54 30.893h-1.67v3.348h-1.5v-8.68h3.035c.996 0 1.765.23 2.306.68.55.45.82 1.1.82 1.95 0 .58-.14 1.07-.42 1.47-.27.39-.66.69-1.16.9l1.94 3.624v.078h-1.6l-1.73-3.344zm-1.67-1.21h1.54c.507 0 .902-.128 1.186-.383.285-.258.427-.61.427-1.056 0-.465-.132-.825-.397-1.08-.26-.255-.652-.386-1.174-.394h-1.582v2.912z"/><path id="v" d="M0 25.58h124.447v8.656H0V25.58z"/></defs></svg>